<?xml version="1.0" encoding="UTF-8" standalone="no"?><!DOCTYPE svg PUBLIC "-//W3C//DTD SVG 1.1//EN" "http://www.w3.org/Graphics/SVG/1.1/DTD/svg11.dtd"><svg width="100%" height="100%" viewBox="0 0 182 182" version="1.1" xmlns="http://www.w3.org/2000/svg" xmlns:xlink="http://www.w3.org/1999/xlink" xml:space="preserve" xmlns:serif="http://www.serif.com/" style="fill-rule:evenodd;clip-rule:evenodd;stroke-linejoin:round;stroke-miterlimit:2;"><rect x="-3" y="0" width="184.4" height="181.4" style="fill:#fff;"/><g id="layer1"><g id="g7813"><path id="path7748" d="M-9.237,100.087l-0,-18.758l131.753,0c0.389,0.101 0.626,0.136 0.861,0.491l0.101,-0c0.337,-0.355 0.658,-0.507 0.945,-0.507c1.078,0.032 1.651,2.14 0.016,2.68c-0,0.472 0.556,1.988 0.962,2.106c0.319,-0.624 0.537,-1.264 0.993,-1.821c0.388,-1.096 -0.355,-2.949 1.077,-2.965c0.102,-0 0.203,0.016 0.322,0.032c1.145,0.389 0.959,2.226 -0.101,2.664c-0.235,0.673 0.117,1.349 0.354,2.039c0.016,0.321 -0.118,2.006 0.455,2.241c0.488,-1.078 0.689,-2.308 1.246,-3.338c1.568,-1.328 1.5,-0.705 1.467,-2.73c0.168,-0.605 0.64,-0.892 1.095,-0.892c0.454,0 0.807,0.268 0.943,0.86c-0,0.876 0.051,1.434 -0.893,1.618c-0.304,0.236 0.252,2.074 0.523,2.426l0.1,0c0.86,-1.482 0.539,-4.128 1.736,-4.853c0.153,-0.035 0.271,-0.051 0.405,-0.051c1.516,-0.016 1.364,2.376 0.269,2.612c-0.589,0.591 0.388,2.107 0.625,2.715c-0,1.094 -0.609,1.262 0.539,2.19c0.557,0.388 1.753,0.826 1.684,1.652c-0.959,0.64 -1.331,-1.164 -2.426,-1.164c-0,2.123 1.095,4.668 2.023,6.538c1.364,-1.549 2.543,-3.05 1.969,-5.239c0,-0.759 0.475,-1.501 0.357,-2.259l-0.085,-0c-0.337,0.824 -0.59,1.55 -0.674,2.478c-0.287,1.026 -1.283,0.556 -0.708,-0.304c0.083,-2.225 0.354,-4.989 2.257,-6.455c0.304,-0.454 0.101,-0.96 0.018,-1.466c0,-0.86 0.472,-1.298 0.994,-1.298c0.793,0 1.685,0.928 0.843,2.259c-0.151,0.15 -0.371,0.303 -0.592,0.321c-0.099,0.084 -0.37,3.571 0.425,3.756c0.486,-0.353 0.958,-0.705 1.431,-1.044c0.151,-0 1.583,1.921 1.938,2.36c-0.304,0.371 -0.841,0.724 -1.213,1.029c-0.069,0.588 -0.355,0.842 -0.895,0.706c-1.717,1.448 -0.521,0.507 -1.583,0.235c-0,1.349 -0.083,2.767 -0.119,4.164c-0.369,1.045 -0.589,2.629 -0.521,3.808c0.455,0.389 0.623,0.608 1.263,0.692c0.152,0.068 0.253,0.083 0.236,0.337c-0.101,0.068 -0.42,0.135 -0.826,0.135c-0.725,0 -1.7,-0.051 -1.972,-0.067c-0.084,-0.355 -0.032,-0.742 -0.051,-1.079c-0.536,-0 -1.616,0.605 -2.156,0.825c-0.456,-0.235 -0.17,-1.212 -0.708,-1.347c-0.22,0.218 -0.101,0.842 0.052,1.145c0.269,0.134 0.37,0.084 0.522,0.354c-0.051,0.118 0.134,0.169 -0.287,0.169c-0.42,0 -2.124,-1.668 -1.753,-2.158c0.305,-0.202 0.724,-0.421 0.894,-0.741c-0.675,-1.567 -1.669,-3 -2.276,-4.567l-0.068,-0c-0.723,2.039 -2.258,3.623 -2.831,5.679c0,0.91 1.366,-0.136 1.366,0.673c-0.237,0.153 -0.455,0.288 -0.674,0.44l-0,0.083c0.219,0.219 0.639,-0.033 0.572,0.456c-0.168,0.084 -0.572,0.135 -1.027,0.135c-0.759,0 -1.651,-0.103 -1.77,-0.186c-0.017,-0.321 -0.017,-0.573 -0.017,-0.892l-0.067,-0.052c-0.354,0.304 -1.668,1.13 -2.444,1.13c-0.15,0 -0.286,-0.067 -0.388,-0.135c-1.296,-0 -2.713,0.117 -4.028,0.068l-0.032,0.067l-132.446,0Zm127.893,-1.699c0.145,0.4 0.529,0.671 0.95,0.671c0.558,-0 1.014,-0.464 1.014,-1.034c0,-0.57 -0.456,-1.035 -1.014,-1.035c-0.558,-0 -1.014,0.465 -1.014,1.035c0,0.12 0.023,0.249 0.064,0.363Zm0.109,-0.045c0.131,0.356 0.475,0.598 0.849,0.598c0.495,-0 0.903,-0.415 0.903,-0.924c0,-0.507 -0.408,-0.919 -0.903,-0.919c-0.5,0 -0.906,0.412 -0.906,0.919c0,0.11 0.021,0.224 0.057,0.326Zm20.404,0.041c0.303,0.017 0.875,-0.017 1.197,-0.101c0.183,-0.894 0.2,-2.411 0.2,-3.336c-0.792,0.791 -3.403,2.628 -1.397,3.437Zm15.552,1.6c0.304,0 0.575,0.085 0.743,-0.201c-0.253,-0.641 -0.91,-0.623 -0.692,-1.434c1.028,-1.7 2.293,-3.082 2.883,-4.954l0.1,-0c0.658,1.298 1.601,2.513 2.174,3.894c0.321,0.607 0.91,1.314 1.046,2.039c0.338,0.656 2.157,-0.253 2.662,-0.454c0,-0.507 -1.145,-0.32 -1.398,-0.32c-0.995,-0.254 -1.652,-2.968 -1.888,-3.911c-0.691,-1.702 -1.485,-3.319 -1.485,-5.123c0.592,0 1.384,0.809 1.688,1.332c0.858,0.05 0.909,-0.507 0.404,-1.012c-1.956,-1.228 -2.123,-1.466 -2.207,-3.656c-0.27,-1.163 -0.943,-1.635 0.05,-2.377c1.026,-1.365 0.052,-2.478 -0.607,-2.478c-0.658,0 -0.911,0.371 -0.911,1.331c0.086,0.691 0.035,1.062 -0.25,1.719c-1.333,2.19 -1.721,4.653 -2.546,7.011c-0.118,0.741 0.353,0.944 0.961,0.473c0.101,-0.725 0.133,-1.586 0.506,-2.242l0.032,0.051c-0.117,1.516 -0.203,3.15 -0.538,4.651c-0.556,1.332 -1.213,2.495 -1.956,3.791c-0.523,0.387 0.91,1.737 1.229,1.87Zm-5.578,0.036c0.018,0.033 1.67,0.033 1.889,-0.086c-0.084,-0.319 -0.911,-0.656 -1.062,-0.724c-0.657,-0.843 -0.135,-3.521 0.319,-4.196c0.575,-0.54 0.575,-0.557 0.625,-1.398c-0.018,-0.642 -0.793,-5.022 -0.658,-5.174c0.404,0.1 0.758,0.487 1.061,0.842c0.237,0.421 0.356,1.432 0.928,0.574c-0,-0.742 -1.719,-1.94 -1.719,-2.664c0.134,-0.287 0.268,-0.59 0.422,-0.894c-0,-0.825 -1.331,-2.005 -0.574,-2.611c0.607,-0.152 0.623,-0.556 0.675,-1.129c-0.101,-0.86 -0.455,-1.231 -0.859,-1.231c-0.44,0 -0.927,0.491 -1.096,1.314c-0.084,0.792 -0.371,1.45 -0.741,2.192c-0.356,1.718 -1.08,3.236 -1.35,5.005c-0.134,0.203 -0.371,0.472 -0.371,0.691c0.743,0.574 1.418,-2.072 1.634,-2.613l0.119,-0.016c-0.032,0.303 -0.068,0.592 -0.083,0.909c-0.608,1.584 0.083,2.933 0.757,4.384c0.373,1.144 -2.257,3.368 -3.184,3.907c-0.118,0.237 0.911,2.328 1.298,1.94c-0.034,-0.557 -0.135,-1.113 -0.135,-1.617c0.321,-0.372 1.197,-1.198 1.719,-1.198c0.015,0.927 0.151,1.974 -0,2.915c-0.085,0.237 -0.271,0.591 -0.051,0.842c0.135,0 0.287,0.018 0.437,0.036Zm-26.507,-14.95l0.302,-0.437c0.49,-0.557 0.473,-0.742 0.473,-1.467l-0.034,-0.033c-0.085,0.152 -0.168,0.287 -0.235,0.438c-0.473,0.556 -0.946,0.488 -0.506,1.499Zm6.74,8.663c0.136,0.12 0.675,-2.343 0.355,-2.343c-0.102,0.135 -0.119,0.387 -0.237,0.572c-1.448,0.574 -0.118,-2.491 -1.33,-2.491c-0.102,1.533 0.606,2.896 1.212,4.262Zm2.882,0.388c0.101,0.117 1.146,-4.094 1.146,-4.939c-0.573,-0.539 -0.557,-0.555 -0.845,-1.128l-0.116,-0c-0.303,2.04 -0.269,3.993 -0.185,6.067Zm-4.971,2.326c0.235,-0.084 0.877,-0.877 0.877,-1.146c-0.405,-0.743 -0.895,-1.248 -1.113,-2.022l-0.068,-0c-0.118,0.403 -0.354,0.892 -0.354,1.364c0.204,0.573 0.524,1.145 0.658,1.804Zm3.033,0.049l0.05,0c0.136,-0.352 0.237,-1.296 0.153,-1.601l-0.085,0c-0.152,0.17 -0.303,0.354 -0.455,0.54c0.068,0.319 0.152,0.725 0.337,1.061Zm-6.943,0.354l0.034,0.018c0.674,-0.456 0.236,-1.179 -0.236,-1.652c-0.27,0.285 0.1,1.196 0.202,1.634Zm0.723,1.771c0.204,0.049 0.12,-0.353 0.086,-0.405l-0.117,-0c-0.051,0.133 -0.204,0.304 0.031,0.405Zm4.165,0.034c0.523,0.015 1.028,-0.052 1.534,-0.018l0.049,-0.083c-0.252,-0.608 -0.606,-1.181 -0.893,-1.72c-0.219,-0.05 -2.106,1.415 -0.69,1.821Zm-1.686,0.808c0.136,0 0.136,0 0.185,-0.016c0,-0.826 -1.179,-1.383 -0.422,-2.022c0.069,-0.323 -0.454,-1.265 -0.605,-1.333c-0.742,0.522 -0.641,1.569 -0.389,2.428c0.135,0.101 1.213,0.32 0.558,0.707l0,0.085c0.15,0.101 0.454,0.135 0.673,0.151Zm-4.011,-0.454l0.068,0c-0.068,-0.489 -0.203,-0.388 0.033,-0.825c-0.084,-0.44 -0.269,-0.845 -0.404,-1.217l-0.085,0c-0.455,1.03 -0.506,1.316 0.388,2.042Zm-2.693,-0.382c0.149,-0.047 0.331,-0.225 0.261,-0.351l-0.085,-0.042l-0.063,0.035c-0.064,0.051 -0.05,0.07 -0.155,0.133l-0.175,0.055l-0.154,-0.019l-0.163,-0.111l-0.062,-0.121l-0.02,-0.161c-0,-0.128 0.027,-0.227 0.082,-0.296c0.056,-0.07 0.178,-0.143 0.269,-0.132c0.167,0.018 0.16,-0.011 0.265,0.104c0.056,0.056 0.1,0.142 0.176,0.056l0.042,-0.09c-0.034,-0.12 -0.112,-0.205 -0.231,-0.246l-0.22,-0.037c-0.131,0 -0.245,0.022 -0.338,0.078c-0.097,0.058 -0.167,0.135 -0.216,0.233c-0.049,0.098 -0.07,0.21 -0.07,0.337c0,0.189 0.05,0.33 0.162,0.443c0.106,0.112 0.253,0.167 0.449,0.167c0.092,0 0.17,-0.013 0.246,-0.035" style="fill:#00458d;"/><path id="path7752" d="M68.677,98.21c3.119,0.068 6.422,0 9.555,0c0,-0.018 0.978,-0.506 1.146,-0.64c0.573,-0.505 2.023,-2.915 1.247,-3.421c-0.455,0.068 -1.448,1.331 -1.971,1.77c-1.145,0.723 -4.954,2.155 -5.191,0.017l0.404,-4.787c0.557,-0.977 2.764,-0.557 3.423,0.27c0.169,0.355 0.251,0.811 0.437,1.231c1.027,0.689 0.96,-4.468 0.877,-4.871c-0.573,-0.304 -0.743,0.286 -0.91,0.725c-0.724,1.027 -2.73,1.162 -3.472,0.859l0.353,-4.922c1.18,-0.471 4.213,-0.572 5.007,0.759c0.151,0.438 -0.018,2.173 0.923,1.349c0.038,-0.489 0.07,-0.996 0.12,-1.484c0.084,-0.588 0.49,-1.971 -0.355,-2.057l-10.75,0c-1.095,0.626 0.893,1.064 1.198,1.315c0.234,0.287 0.286,0.523 0.336,0.928l-0.793,10.515c-0.05,0.541 -0.42,0.978 -0.826,1.316c-0.369,0.217 -1.787,0.756 -0.758,1.128" style="fill:#fff;"/><path id="path7756" d="M100.934,98.278c2.594,0.657 4.5,-4.096 3.252,-4.096c-0.775,0.86 -1.4,1.533 -2.377,2.174c-1.096,0.49 -4.23,1.432 -4.583,-0.201c-0.1,-1.568 0.252,-3.439 0.404,-4.954c0.319,-0.963 2.563,-0.49 3.252,0.067c0.219,0.302 0.759,2.425 1.213,1.043c0.119,-1.415 0.287,-2.865 0.337,-4.246c-0.287,-1.011 -0.892,0.235 -1.027,0.574c-0.692,0.792 -2.714,1.33 -3.572,0.706c0.116,-1.533 0.236,-3.066 0.353,-4.6c0.302,-0.726 2.476,-0.455 3.001,-0.438c1.078,0.084 2.004,0.117 2.274,1.365c0.033,0.59 -0.185,1.113 0.523,1.113c0.335,-0.118 0.91,-3.422 0.219,-3.742l-10.888,0c-0.303,0.168 -0.436,0.336 -0.236,0.69c0.894,0.574 1.518,0.136 1.719,1.518l-0.96,11.038c-0.152,0.405 -0.285,0.557 -0.623,0.826c-0.253,0.152 -1.82,0.775 -0.792,1.129c2.83,-0 5.679,0.016 8.511,0.034" style="fill:#fff;"/><path id="path7760" d="M111.296,98.414c3.237,0.083 5.883,-1.097 7.77,-3.827c0.237,-0.523 0.12,-0.894 -0.456,-0.573c-2.004,1.752 -3.723,3.051 -6.487,2.511c-0.827,-0.338 -1.263,-0.674 -1.87,-1.247c-3.253,-4.181 -1.045,-13.043 5.475,-11.09c1.468,0.692 2.565,2.124 3.203,3.658c0.255,0.32 0.506,0.505 0.725,-0.017c-0.049,-1.45 -0.082,-2.915 -0.117,-4.365c-0.507,-0.488 -0.86,0.555 -1.197,0.555c0,0.019 0,0.019 -0.489,-0.1c-1.415,-0.574 -2.61,-0.911 -4.146,-1.029c-5.324,0.187 -8.528,3.777 -8.528,9.136c0.203,3.707 2.478,5.915 6.117,6.388" style="fill:#fff;"/><path id="path7764" d="M86.272,98.414c2.713,0.083 5.139,-1.399 5.763,-4.197c0.354,-2.699 -0.37,-3.96 -2.799,-5.057c-2.19,-0.893 -5.543,-1.516 -3.925,-4.432c1.786,-1.787 4.297,-0.54 5.511,1.332c0.132,0.336 0.54,2.477 1.33,1.483c0.169,-0.624 0,-1.837 0,-2.478c0.035,-1.264 0.305,-1.971 -0.993,-1.365c-0.556,-0.066 -3.943,-0.945 -4.534,-0.81c-0.388,0.086 -0.775,0.051 -1.162,0.255c-3.085,0.69 -3.859,5.595 -1.298,7.751c1.954,1.23 8.511,2.477 4.618,6c-0.911,0.489 -1.754,0.539 -2.765,0.403c-1.938,-0.59 -2.713,-2.156 -3.404,-3.891c-0.388,-0.203 -0.59,-0.203 -0.758,0.167c-0,1.129 0.321,2.513 0.489,3.658c0.219,0.573 2.982,1.045 3.927,1.181" style="fill:#fff;"/><path id="path7768" d="M54.218,98.244l11.205,0.05c0.895,0 1.603,-0.168 1.536,-0.741c-0.405,-0.707 -1.804,0.186 -1.804,-1.634c0.32,-3.657 0.641,-7.28 0.959,-10.921c0.069,-0.152 0.137,-0.303 0.204,-0.438c0.37,-0.438 2.325,-1.147 1.297,-1.552l-6.436,0c-0.304,0.069 -0.422,0.575 -0.085,0.725c1.348,0.406 1.669,0.355 1.669,1.956c-0.219,3.335 -0.625,6.707 -0.911,10.077c-0.118,0.708 -0.235,1.382 -0.995,1.619c-0.926,-0.052 -1.161,-0.27 -1.551,-1.096c-1.534,-4.298 -3.083,-8.594 -4.618,-12.893c-0.1,-0.185 -0.185,-0.319 -0.286,-0.42c-0.25,-0 -0.302,0.118 -0.437,0.287c-2.511,4.196 -4.702,8.678 -7.332,12.825c-0.588,0.742 -0.943,1.06 -1.751,1.584c-0.457,0.776 0.892,0.52 5.241,0.52c0.707,-0.606 -1.298,-1.127 -1.618,-1.262c-0.877,-0.826 0.371,-3.237 1.314,-3.725c1.45,-0.118 2.898,-0.085 4.365,-0.034c1.281,0.27 1.922,2.966 1.195,3.894c-0.117,0.083 -2.021,0.825 -1.161,1.179Zm-3.033,-6.287c0.454,0 3.15,0.119 3.253,-0.167c-0.068,-0.371 -1.365,-4.636 -1.905,-4.095c-0.034,0.033 -2.191,3.674 -2.191,4.162c0.202,0.084 0.571,0.084 0.843,0.1" style="fill:#fff;"/></g></g></svg>