<?xml version="1.0" encoding="UTF-8" standalone="no"?><!DOCTYPE svg PUBLIC "-//W3C//DTD SVG 1.1//EN" "http://www.w3.org/Graphics/SVG/1.1/DTD/svg11.dtd"><svg width="100%" height="100%" viewBox="0 0 182 182" version="1.1" xmlns="http://www.w3.org/2000/svg" xmlns:xlink="http://www.w3.org/1999/xlink" xml:space="preserve" xmlns:serif="http://www.serif.com/" style="fill-rule:evenodd;clip-rule:evenodd;stroke-linejoin:round;stroke-miterlimit:2;"><g id="Ebene_2"><path d="M174,93.695c1.651,-0.285 3.207,-0.972 4.53,-2c1.22,-1.277 1.833,-3.02 1.68,-4.78c0.005,-1.433 -0.39,-2.839 -1.14,-4.06c-1.106,-1.886 -3.096,-3.088 -5.28,-3.19l-1.09,0l-2.55,-0.09l-11.54,0c-0.7,0 -1,0.29 -1,1l0,20.22c0,0.7 0.29,1 1,1l3,0c0.7,0 1,-0.29 1,-1l0,-6.7l3.67,0c0.807,0.042 1.575,0.364 2.17,0.91l5.82,5.85c0.531,0.542 1.243,0.87 2,0.92l4.47,0c0.7,0 0.87,-0.41 0.38,-0.91l-7.12,-7.17Zm-0.76,-4.3l-10.65,0l0,-5.1l10.65,0c1.076,0.132 1.888,1.066 1.87,2.15l0,0.79c0.019,1.086 -0.792,2.023 -1.87,2.16Z" style="fill:#d50c2d;fill-rule:nonzero;"/><path d="M152.95,97.095l-16.53,0l0,-4.17l13.19,0c0.7,0 1,-0.29 1,-1l0,-2.43c0,-0.7 -0.29,-1 -1,-1l-13.2,0l0,-4.16l16.54,0c0.7,0 1,-0.29 1,-1l0,-2.76c0,-0.7 -0.29,-1 -1,-1l-20.62,0c-0.7,0 -1,0.29 -1,1l0,20.24c0,0.7 0.29,1 1,1l20.62,0c0.7,0 1,-0.29 1,-1l0,-2.73c0,-0.7 -0.33,-0.99 -1,-0.99Z" style="fill:#d50c2d;fill-rule:nonzero;"/><path d="M127.68,86.875c0.022,-1.415 -0.371,-2.806 -1.13,-4c-1.113,-1.933 -3.133,-3.176 -5.36,-3.3l-15.16,0c-0.71,0 -1,0.29 -1,1l0,20.22c0,0.7 0.29,1 1,1l3.26,0c0.7,0 1,-0.28 1,-1l0,-16.49l8.78,0c1.87,0 3.69,1.24 3.69,3.11l0,13.4c0,0.7 0.29,1 1,1l2.95,-0c0.71,-0 1,-0.29 1,-1l-0.03,-13.94Z" style="fill:#d50c2d;fill-rule:nonzero;"/><path d="M100.42,96.965l-14.25,0l14.28,-12.55c0.579,-0.443 0.943,-1.113 1,-1.84l0,-2c0,-0.7 -0.3,-1 -1,-1l-20.67,0c-0.7,0 -1,0.29 -1,1l0,2.77c0,0.7 0.29,1 1,1l13.25,0l-13.29,12.47c-0.574,0.447 -0.937,1.115 -1,1.84l0,2.17c0,0.7 0.29,1 1,1l20.65,0c0.7,0 1,-0.29 1,-1l0,-2.87c0.02,-0.7 -0.27,-0.99 -0.97,-0.99Z" style="fill:#d50c2d;fill-rule:nonzero;"/><path d="M74.14,79.575l-20.64,0c-0.71,0 -1,0.28 -1,1l0,2.76c0,0.7 0.28,1 1,1l7.78,0l0,16.48c0,0.7 0.29,1 1,1l3.3,-0c0.7,-0 1,-0.29 1,-1l0,-16.49l7.57,-0c0.7,-0 1,-0.29 1,-1l0,-2.75c-0.02,-0.68 -0.31,-1 -1.01,-1Z" style="fill:#d50c2d;fill-rule:nonzero;"/><path d="M47.86,97.095l-16.5,0l0,-4.17l13.19,0c0.7,0 1,-0.29 1,-1l0,-2.43c0,-0.7 -0.28,-1 -1,-1l-13.19,0l0,-4.16l16.5,0c0.7,0 1,-0.29 1,-1l0,-2.76c0,-0.7 -0.29,-1 -1,-1l-20.58,0c-0.7,0 -1,0.29 -1,1l0,20.24c0,0.7 0.29,1 1,1l20.58,0c0.7,0 1,-0.29 1,-1l0,-2.73c-0.01,-0.7 -0.3,-0.99 -1,-0.99Z" style="fill:#d50c2d;fill-rule:nonzero;"/><path d="M21.58,79.575l-3.11,0c-0.7,0 -1,0.29 -1,1l0,7.87l-12.39,0l0,-7.87c0,-0.7 -0.29,-1 -1,-1l-3.13,0c-0.71,0 -1,0.29 -1,1l0,20.25c0,0.71 0.29,1 1,1l3.13,0c0.7,0 1,-0.28 1,-1l0,-8l12.4,0l0,8c0,0.7 0.29,1 1,1l3.11,0c0.7,0 1,-0.29 1,-1l0,-20.25c-0.02,-0.68 -0.31,-1 -1.01,-1Z" style="fill:#d50c2d;fill-rule:nonzero;"/></g></svg>