<?xml version="1.0" encoding="UTF-8" standalone="no"?><!DOCTYPE svg PUBLIC "-//W3C//DTD SVG 1.1//EN" "http://www.w3.org/Graphics/SVG/1.1/DTD/svg11.dtd"><svg width="100%" height="100%" viewBox="0 0 182 182" version="1.1" xmlns="http://www.w3.org/2000/svg" xmlns:xlink="http://www.w3.org/1999/xlink" xml:space="preserve" xmlns:serif="http://www.serif.com/" style="fill-rule:evenodd;clip-rule:evenodd;stroke-linejoin:round;stroke-miterlimit:2;"><rect x="-3" y="0" width="184.4" height="181.4" style="fill:#213362;"/><clipPath id="_clip1"><rect id="iheccarthage.svg" x="9.246" y="55.953" width="162.908" height="69.495"/></clipPath><g clip-path="url(#_clip1)"><path d="M42.554,89.535l-0,0.068l-0.137,0c0.068,0 0.137,-0.068 0.137,-0.068Z" style="fill:#fff;fill-rule:nonzero;"/><path d="M42.554,89.535l-0,0.068l-0.137,0c0.068,0 0.137,-0.068 0.137,-0.068Z" style="fill:#fff;fill-rule:nonzero;"/><path d="M17.402,76.787c-0.138,-1.165 0.137,-2.398 0.89,-3.358c1.234,-1.576 4.524,-3.495 4.524,-3.495l2.536,-0c-0.617,0.617 -3.838,3.358 -3.838,3.358l2.467,0.069c-0,-0 -2.604,2.467 -3.77,2.947c-0.89,0.342 -1.85,0.479 -2.809,0.479Z" style="fill:#fff;fill-rule:nonzero;"/><path d="M16.031,76.102l-0,2.125l2.604,-0c-0.617,2.261 -2.467,3.906 -4.729,4.317c0,0 -1.028,-5.345 2.125,-6.442Z" style="fill:#fff;fill-rule:nonzero;"/><path d="M12.467,81.105l0.069,2.056l2.741,0c-0.411,2.056 -1.645,3.838 -3.427,4.866c0,0 -2.261,-4.181 0.617,-6.922Z" style="fill:#fff;fill-rule:nonzero;"/><path d="M10,87.89l2.056,1.988l1.782,-1.577c-0,0 1.096,5.072 -1.988,8.704c-0.068,0 -3.221,-1.85 -1.85,-9.115Z" style="fill:#fff;fill-rule:nonzero;"/><path d="M12.33,98.719l2.125,-3.496c-0,0 0.959,5.483 -0.754,9.458c-0,0 -5.003,-2.261 -4.387,-8.704l3.016,2.742Z" style="fill:#fff;fill-rule:nonzero;"/><path d="M11.85,104.887l3.427,1.576l0.068,-4.181c0,0 3.976,3.016 2.742,10.486c-0,0 -5.894,-1.165 -6.237,-7.881Z" style="fill:#fff;fill-rule:nonzero;"/><path d="M15.962,114.55l4.112,-0.068c-0.068,-1.645 -0.342,-3.29 -0.822,-4.866c-0,-0 8.635,8.361 11.171,8.909c1.302,0.274 2.673,0.343 4.044,0.274l-0,1.166l-11.171,0.068c-0.069,0 -5.826,-1.576 -7.334,-5.483Z" style="fill:#fff;fill-rule:nonzero;"/><path d="M66.13,120.581c0,0 -1.713,3.77 -7.881,3.77c-3.085,-0 -10.76,-2.33 -10.76,-2.33l2.193,3.495l-3.016,-0l-2.81,-3.632l-2.81,3.632l-3.015,-0l2.193,-3.495c-0,-0 -7.676,2.33 -10.76,2.33c-6.168,-0 -7.882,-3.77 -7.882,-3.77l44.548,0Z" style="fill:#fff;fill-rule:nonzero;"/><path d="M45.295,89.603l-0.137,0l0,-0.068c0.069,-0 0.069,0.068 0.137,0.068Z" style="fill:#fff;fill-rule:nonzero;"/><path d="M45.295,89.603l-0.137,0l0,-0.068c0.069,-0 0.069,0.068 0.137,0.068Z" style="fill:#fff;fill-rule:nonzero;"/><path d="M69.557,99.815c0.548,-1.85 0.822,-3.769 0.891,-5.62l-2.605,0l0,-2.33l2.536,0c-0.137,-1.987 -0.411,-3.975 -0.891,-5.894l-2.604,0.48l-0.274,-1.782l2.399,-0.411c-0.754,-2.399 -1.919,-4.592 -3.359,-6.648l-1.782,1.439l-1.165,-1.371l1.782,-1.507c-0.411,-0.48 -0.822,-0.891 -1.233,-1.303l-5.072,5.209c3.701,3.632 5.757,8.567 5.757,13.707c-0.069,8.773 -6.031,16.449 -14.598,18.642l-0,-1.714c-0.206,-3.701 -1.645,-6.648 -3.632,-7.813c2.056,-1.028 3.426,-3.564 3.426,-6.579c0,-3.153 -1.576,-5.826 -3.838,-6.717l-0.137,0l0,-0.068c0.069,-0 0.069,-0 0.137,0.068c2.605,-1.165 3.77,-4.18 2.605,-6.785c-0.549,-1.233 -1.508,-2.124 -2.742,-2.672l0,-0.206c2.81,-0.137 7.402,-3.29 7.402,-6.991c0,-2.604 -2.673,-4.386 -5.277,-4.386c-1.234,0 -1.851,0.274 -2.125,0.685l0,-3.975c1.097,0.96 2.879,1.508 3.838,1.508c1.577,0 1.097,-1.028 3.084,-1.028c1.714,0 3.838,4.249 3.838,4.249l13.844,-0.068c-2.947,-4.044 -13.912,-11.651 -13.912,-11.651c-0,-0 -6.442,-5.003 -7.676,-0.411c-0.891,3.289 -2.399,3.838 -3.016,3.906l0,-1.234c0.137,-0.616 1.645,-1.233 1.782,-2.124c0.206,-1.234 -1.37,-2.262 -3.084,-2.399c-1.713,0.137 -3.29,1.165 -3.084,2.399c0.137,0.891 1.713,1.508 1.851,2.124l-0,1.234c-0.617,-0.068 -2.125,-0.617 -3.016,-3.906c-1.234,-4.592 -7.676,0.411 -7.676,0.411c0,-0 -10.966,7.607 -13.981,11.582l13.844,0.069c-0,-0 2.056,-4.249 3.838,-4.249c1.987,-0 1.576,1.028 3.084,1.028c0.959,-0 2.741,-0.549 3.838,-1.508l-0,3.975c-0.274,-0.411 -0.891,-0.685 -2.125,-0.685c-2.604,-0 -5.277,1.781 -5.277,4.386c0,3.701 4.592,6.853 7.402,6.99l-0,0.206c-2.604,1.097 -3.907,4.112 -2.741,6.716c0.479,1.234 1.439,2.194 2.672,2.742c0,-0 0.069,-0 0.138,-0.069l-0,0.069l-0.138,-0c-2.193,0.891 -3.838,3.564 -3.838,6.716c0,3.016 1.44,5.552 3.427,6.58c-2.056,1.165 -3.427,4.112 -3.701,7.813l0,1.645c-8.498,-2.056 -14.529,-9.732 -14.529,-18.573c-0,-5.141 2.056,-10.075 5.757,-13.708l-5.072,-5.208c-0.411,0.411 -0.891,0.891 -1.233,1.302l1.781,1.508l-1.165,1.37l-1.782,-1.439c-1.439,1.988 -2.604,4.249 -3.358,6.648l2.399,0.411l-0.274,1.714l-2.605,-0.48c-0.479,1.919 -0.822,3.907 -0.89,5.894l2.535,0l0,2.33l-2.604,0c0.069,1.919 0.343,3.77 0.891,5.62l2.673,0l-0,2.33l-1.919,0c0.822,2.193 1.987,4.25 3.358,6.168l2.467,0l0,2.331l-0.616,-0c1.302,1.507 2.809,2.878 4.454,4.112l2.947,-0l0,1.919c1.988,1.165 4.181,1.919 6.443,2.399l-0,-1.782l1.919,-0l-0,2.056c0.616,0.068 1.233,0.068 1.85,0.068l4.249,0c0.617,0 1.234,0 1.851,-0.068l-0,-2.056l1.919,-0l-0,1.782c2.261,-0.48 4.455,-1.234 6.442,-2.399l0,-1.919l2.947,-0c1.645,-1.234 3.084,-2.605 4.455,-4.112l-0.617,-0l0,-2.331l2.399,0c1.37,-1.918 2.467,-3.975 3.358,-6.168l-1.919,0l-0,-2.193l2.673,0Zm-24.399,-28.648c0.274,0.549 0.96,1.097 1.988,1.303c1.371,0.274 2.536,-1.165 2.536,-1.165c0.068,0.685 -0,1.37 -0.206,2.056c-0.548,2.672 -3.084,3.906 -4.386,4.18l-0,-6.374l0.068,0Zm0,11.24c0.754,0.617 1.165,1.508 1.097,2.468c-0,0.959 -0.411,1.85 -1.097,2.467l0,-4.935Zm-6.99,-9.046c-0.137,-0.686 -0.206,-1.371 -0.206,-2.056c0,-0 1.234,1.37 2.536,1.165c1.028,-0.206 1.713,-0.754 1.987,-1.303l0,6.374c-1.165,-0.274 -3.769,-1.508 -4.317,-4.18Zm4.112,9.389c0.068,-0.137 0.205,-0.206 0.343,-0.343l-0,4.935c-1.371,-1.165 -1.508,-3.221 -0.343,-4.592Zm-1.576,13.57c-0.069,-1.713 0.616,-3.358 1.919,-4.455l-0,8.91c-1.303,-1.097 -1.988,-2.742 -1.919,-4.455Zm-0,16.585l-0.138,0c0,-0.411 -0.068,-0.753 -0.068,-1.165l-0,-0.616c0.137,-2.673 0.959,-4.798 1.987,-5.963l0.069,-0.069l-0,8.019c-0.617,-0.069 -1.234,-0.137 -1.85,-0.206Zm4.454,-21.04c1.234,1.097 1.988,2.742 1.919,4.455c0.069,1.713 -0.617,3.358 -1.919,4.455l0,-8.91Zm1.988,21.04l-0.137,0c-0.617,0.069 -1.234,0.137 -1.851,0.206l0,-8.087l0.069,0.068c1.028,1.166 1.85,3.29 1.987,5.963l0,0.617c0,0.411 0,0.822 -0.068,1.233Z" style="fill:#fff;fill-rule:nonzero;"/><path d="M70.379,76.787c0.137,-1.165 -0.137,-2.398 -0.891,-3.358c-1.233,-1.576 -4.523,-3.495 -4.523,-3.495l-2.536,-0c0.617,0.617 3.838,3.358 3.838,3.358l-2.467,0.069c-0,-0 2.604,2.467 3.769,2.947c0.891,0.342 1.851,0.479 2.81,0.479Z" style="fill:#fff;fill-rule:nonzero;"/><path d="M71.75,76.102l-0,2.125l-2.604,-0c0.616,2.261 2.467,3.906 4.729,4.317c-0,0 1.028,-5.345 -2.125,-6.442Z" style="fill:#fff;fill-rule:nonzero;"/><path d="M75.314,81.105l-0.069,2.056l-2.741,0c0.411,2.056 1.645,3.838 3.427,4.866c-0,0 2.261,-4.181 -0.617,-6.922Z" style="fill:#fff;fill-rule:nonzero;"/><path d="M77.781,87.89l-2.056,1.988l-1.782,-1.577c0,0 -1.096,5.072 1.988,8.704c0.068,0 3.221,-1.85 1.85,-9.115Z" style="fill:#fff;fill-rule:nonzero;"/><path d="M75.451,98.719l-2.125,-3.496c0,0 -0.959,5.483 0.754,9.458c0,0 5.003,-2.261 4.386,-8.704l-3.015,2.742Z" style="fill:#fff;fill-rule:nonzero;"/><path d="M75.931,105.572l-3.427,1.576l-0.069,-4.18c0,-0 -3.975,3.015 -2.741,10.486c-0,-0 5.894,-1.165 6.237,-7.882Z" style="fill:#fff;fill-rule:nonzero;"/><path d="M71.819,114.55l-4.113,-0.068c0.069,-1.645 0.343,-3.29 0.823,-4.866c-0,-0 -8.636,8.361 -11.171,8.909c-1.303,0.274 -2.673,0.343 -4.044,0.274l0,1.166l11.171,0.068c0,0 5.826,-1.576 7.334,-5.483Z" style="fill:#fff;fill-rule:nonzero;"/><g><rect x="90.049" y="75.485" width="3.564" height="22.891" style="fill:#fff;"/><rect x="102.934" y="75.485" width="3.564" height="22.891" style="fill:#fff;"/><rect x="104.03" y="85.628" width="38.311" height="1.508" style="fill:#fff;"/><rect x="118.011" y="75.485" width="3.564" height="22.891" style="fill:#fff;"/><rect x="128.977" y="75.485" width="3.564" height="22.891" style="fill:#fff;"/><g><path d="M89.638,107.902c-0,-1.302 0.617,-2.261 1.37,-2.81c0.686,-0.548 1.577,-0.753 2.331,-0.753c0.548,-0 1.028,0.068 1.302,0.205c0.068,0.548 0.068,1.097 0.068,1.576c-0.205,0 -0.411,0.069 -0.617,0.069l-0.137,-1.028c0,-0.069 -0.068,-0.137 -0.068,-0.137c-0.206,-0.137 -0.48,-0.137 -0.823,-0.137c-0.548,-0 -1.165,0.205 -1.644,0.617c-0.549,0.548 -0.891,1.302 -0.891,2.193c-0,0.822 0.137,1.37 0.616,1.85c0.343,0.411 1.029,0.617 1.714,0.617c0.617,0 1.302,-0.206 1.782,-0.411c0.068,0.137 0.068,0.342 0.137,0.48c-0.754,0.274 -1.508,0.479 -2.056,0.479c-0.686,0 -1.439,-0.137 -1.988,-0.548c-0.617,-0.48 -1.096,-1.302 -1.096,-2.262Z" style="fill:#fff;fill-rule:nonzero;"/><path d="M100.466,110.164c0.754,-1.713 1.645,-4.112 2.33,-5.825l0.549,-0c0.685,1.713 1.508,4.112 2.193,5.825l0.617,0l-0,0.411l-2.262,0l0,-0.411l0.754,0l-0,-0.069c-0.137,-0.411 -0.343,-0.959 -0.48,-1.37c0,-0.069 0,-0.069 -0.068,-0.069l-2.399,0c-0.137,0.48 -0.411,1.028 -0.548,1.439l0.891,0l-0,0.412l-2.194,-0l0,-0.412l0.617,0.069Zm2.468,-4.729c-0.343,0.891 -0.754,1.919 -1.028,2.741l-0,0.069l2.124,0c-0.343,-0.822 -0.754,-1.919 -1.096,-2.81Z" style="fill:#fff;fill-rule:nonzero;"/><path d="M111.363,104.955l0,-0.411l1.919,0c0.549,0 0.891,0 1.371,0.137c0.685,0.137 1.234,0.754 1.234,1.439c-0,0.823 -0.617,1.44 -1.371,1.714l0,0.068c0.48,0.206 0.754,0.754 1.234,1.645c0.342,0.617 0.411,0.686 0.548,0.686l0.617,-0l-0,0.479l-1.302,0c-0.343,-0.411 -0.96,-1.713 -1.303,-2.193c-0.205,-0.343 -0.411,-0.411 -0.959,-0.411l-0.548,-0l-0,2.125l0.822,-0l0,0.479l-2.33,0l-0,-0.479l0.685,-0l0,-5.209l-0.617,-0.069Zm1.44,2.605l0.548,-0c1.234,-0 1.713,-0.754 1.713,-1.302c0,-0.891 -0.685,-1.371 -1.645,-1.371c-0.342,-0 -0.479,-0 -0.548,0.068l-0.068,2.605Z" style="fill:#fff;fill-rule:nonzero;"/><path d="M123.974,110.164l0.068,-5.209l-1.37,0c-0.206,0 -0.274,0.069 -0.274,0.206l-0.138,0.891c-0.205,-0 -0.411,-0 -0.616,-0.069c0.068,-0.479 0.068,-1.028 0.137,-1.576l5.414,0c0.069,0.48 0.069,1.028 0.069,1.576c-0.138,0 -0.412,0.069 -0.617,0.069l-0.137,-0.891c-0,-0.137 -0.069,-0.137 -0.274,-0.206l-1.371,0l-0,5.209l0.959,0l0,0.48l-2.673,-0l0,-0.48l0.823,0Z" style="fill:#fff;fill-rule:nonzero;"/><path d="M133.158,110.164l0.068,-5.209l-0.685,0l-0,-0.411l2.261,0l0,0.48l-0.753,-0l-0,2.262c-0,-0 -0,0.068 0.068,0.068l3.084,0l0,-2.262l-0.822,0l-0,-0.411l2.193,0l-0,0.411l-0.617,0l0,5.278l0.685,-0l0,0.411l-2.261,-0l-0,-0.48l0.754,0c-0,0 0.068,0 0.068,-0.068l0,-2.468c0,0 0,-0.068 -0.068,-0.068l-3.084,-0l-0,2.467l0.822,0l-0,0.48l-2.262,-0l0,-0.48l0.549,0Z" style="fill:#fff;fill-rule:nonzero;"/><path d="M144.397,110.164c0,0 0.069,0 0,0c0.686,-1.713 1.577,-4.112 2.262,-5.825l0.548,-0c0.617,1.713 1.44,4.112 2.125,5.825l0.548,0l0,0.411l-2.124,0l-0,-0.411l0.753,0l0,-0.069c-0.137,-0.411 -0.342,-0.959 -0.479,-1.37c-0,-0.069 -0,-0.069 -0.069,-0.069l-2.261,0c-0.138,0.48 -0.343,1.028 -0.48,1.439l0.891,0l-0,0.412l-2.125,-0l0,-0.412l0.411,0.069Zm2.399,-4.729c-0.343,0.891 -0.685,1.919 -1.028,2.741l0,0.069l1.988,0c-0.206,-0.822 -0.617,-1.919 -0.96,-2.81Z" style="fill:#fff;fill-rule:nonzero;"/><path d="M159.407,105.298c-0,-0.069 -0,-0.137 -0.069,-0.206c-0.274,-0.205 -0.617,-0.274 -0.959,-0.274c-0.48,0 -1.097,0.137 -1.577,0.617c-0.548,0.48 -0.822,1.234 -0.822,2.125c-0,0.822 0.205,1.507 0.685,1.987c0.548,0.548 1.234,0.686 1.782,0.686c0.48,-0 0.891,-0.138 0.891,-0.206l0,-1.645l-1.028,0l0,-0.48l2.33,0l0,0.48l-0.48,0c0,0 -0.068,0 -0.068,0.069l-0,1.919c-0.343,0.205 -0.96,0.342 -1.713,0.342c-0.891,0 -1.645,-0.205 -2.194,-0.617c-0.616,-0.548 -1.028,-1.302 -1.028,-2.398c0,-1.165 0.549,-2.125 1.371,-2.742c0.617,-0.479 1.508,-0.616 2.056,-0.616c0.617,-0 1.097,0.137 1.439,0.274c0,0.479 0.069,1.028 0.069,1.576c-0.206,-0 -0.343,0.069 -0.548,0.069l-0.137,-0.96Z" style="fill:#fff;fill-rule:nonzero;"/><path d="M167.151,110.164l0,-5.277l-0.685,-0l-0,-0.48l4.043,0c0.069,0.48 0.069,0.96 0.069,1.439c-0.137,0 -0.343,0.069 -0.48,0.069l-0.137,-0.823c0,-0.068 -0.068,-0.137 -0.206,-0.137c-0.205,0 -0.891,-0.068 -1.507,-0.068l-0.274,-0l-0,2.33l1.507,-0c0.206,-0 0.206,-0.069 0.206,-0.206l0.068,-0.479l0.48,-0l0,1.782l-0.48,-0l-0.068,-0.48c-0,-0.137 -0.069,-0.206 -0.206,-0.206l-1.507,0l-0,2.262c-0,0.137 -0,0.205 0.548,0.205c0.754,0 1.302,0 1.508,-0.068c0.068,-0 0.137,-0.069 0.205,-0.206l0.274,-0.891c0.206,0 0.343,0.069 0.48,0.069c-0.137,0.48 -0.206,1.028 -0.343,1.508l-4.043,-0l-0,-0.412l0.548,0.069Z" style="fill:#fff;fill-rule:nonzero;"/></g><path d="M102.934,75.485l-0,2.742c-0,-0.96 -0.754,-1.714 -1.714,-1.714l-1.85,-0.137l-0,-0.891l3.564,0Z" style="fill:#fff;fill-rule:nonzero;"/><path d="M128.977,75.485l-0,2.742c-0,-0.96 -0.754,-1.714 -1.713,-1.714l-1.851,-0.137l0,-0.891l3.564,0Z" style="fill:#fff;fill-rule:nonzero;"/><path d="M144.603,75.485l0.343,5.277l-0.823,0l-0.274,-1.096c-0.411,-1.576 -0.754,-2.467 -3.153,-2.742l-8.292,0.069l-0,-1.508l12.199,0Z" style="fill:#fff;fill-rule:nonzero;"/><path d="M142.615,84.189l0,4.935l-0.822,-0c0,-0 0.137,-1.714 -1.302,-1.988l0.205,-1.508c0.069,0 1.166,-0.274 1.029,-1.439l0.89,0Z" style="fill:#fff;fill-rule:nonzero;"/><path d="M132.541,93.167c-0,0 -0,1.165 0.205,1.782c0.069,0.274 0.48,0.823 0.754,1.097c0.069,0.068 0.549,0.617 1.508,0.822c0.617,0.137 4.318,0.069 4.318,0.069l1.85,-0.069c0.48,0 0.823,-0.137 1.165,-0.343c0.549,-0.342 1.302,-0.959 1.577,-1.576c0.411,-0.959 1.028,-2.467 1.028,-2.467l1.165,-0l-1.302,5.825l-12.268,0l-0,-5.14Z" style="fill:#fff;fill-rule:nonzero;"/><path d="M171.4,92.55c0.274,0.138 0.48,0.275 0.754,0.412c-0.411,0.754 -1.165,1.919 -2.33,3.015c-2.193,1.988 -4.66,2.467 -5.894,2.742c-1.165,0.205 -3.838,0.479 -6.717,-0.617c-3.084,-1.097 -4.728,-3.084 -5.619,-4.386c-1.371,-2.125 -1.714,-4.113 -1.851,-4.866c-0.068,-0.48 -0.343,-2.742 0.548,-5.552c0.275,-0.822 0.96,-2.741 2.742,-4.592c1.645,-1.713 3.358,-2.467 4.249,-2.81c0.548,-0.205 2.193,-0.822 4.386,-0.959c1.028,-0.069 2.605,-0.137 4.592,0.548c1.302,0.411 2.262,1.028 2.947,1.508c0.206,0.068 0.617,0.206 1.165,0.137c0.411,-0.069 0.754,-0.274 0.96,-0.343c0.137,1.988 0.274,3.975 0.342,5.963c-0.274,-0 -0.479,0.068 -0.753,0.068c-0.138,-0.753 -0.549,-2.261 -1.714,-3.7c-1.713,-2.125 -3.975,-2.673 -5.003,-2.879c-0.685,-0.137 -3.153,-0.48 -5.62,0.96c-2.741,1.576 -3.975,4.797 -4.112,6.099c-0.137,1.028 -0.754,5.14 -0.068,7.402c0.342,1.234 1.302,3.427 3.221,4.866c1.439,1.097 2.878,1.234 3.975,1.439c1.096,0.206 2.947,0.48 5.003,-0.342c1.713,-0.686 2.81,-1.851 3.427,-2.468c0.616,-0.548 1.096,-1.165 1.37,-1.645Z" style="fill:#fff;fill-rule:nonzero;"/></g></g></svg>