<svg xmlns="http://www.w3.org/2000/svg" xmlns:xlink="http://www.w3.org/1999/xlink" width="500" zoomAndPan="magnify" viewBox="0 0 375 374.999991" height="500" preserveAspectRatio="xMidYMid meet" version="1.0"><defs><g/></defs><rect x="-37.5" width="450" fill="#ffffff" y="-37.499999" height="449.999989" fill-opacity="1"/><rect x="-37.5" width="450" fill="#10271f" y="-37.499999" height="449.999989" fill-opacity="1"/><g fill="#ffffff" fill-opacity="1"><g transform="translate(12.778083, 228.321569)"><g><path d="M 199.125 -168.09375 C 207.175781 -162.84375 213.035156 -156.28125 216.703125 -148.40625 C 220.378906 -140.539062 221.550781 -132.210938 220.21875 -123.421875 C 218.46875 -112.703125 214.570312 -103.125 208.53125 -94.6875 C 202.519531 -86.320312 195.617188 -78.828125 187.828125 -72.203125 C 181.398438 -66.691406 174.710938 -61.550781 167.765625 -56.78125 C 160.828125 -52.007812 153.710938 -47.492188 146.421875 -43.234375 C 136.910156 -37.640625 127.25 -32.164062 117.4375 -26.8125 C 113.175781 -24.445312 108.914062 -22.109375 104.65625 -19.796875 C 104.46875 -19.597656 104.257812 -19.425781 104.03125 -19.28125 C 103.425781 -18.9375 102.835938 -18.6875 102.265625 -18.53125 C 99.835938 -17.695312 98.164062 -16.5 97.25 -14.9375 C 96.332031 -13.382812 95.851562 -11.585938 95.8125 -9.546875 C 95.78125 -7.515625 95.878906 -5.394531 96.109375 -3.1875 C 96.179688 -2.125 96.769531 -1.382812 97.875 -0.96875 C 99.050781 -0.550781 100.269531 -0.207031 101.53125 0.0625 C 107.039062 1.238281 112.550781 2.359375 118.0625 3.421875 C 127.269531 5.359375 136.507812 7.28125 145.78125 9.1875 C 156.007812 11.269531 166.222656 13.414062 176.421875 15.625 C 182.617188 16.957031 188.851562 18.289062 195.125 19.625 C 196.875 20.039062 198.585938 20.378906 200.265625 20.640625 C 202.203125 21.066406 204.117188 21.488281 206.015625 21.90625 C 207.460938 22.132812 208.890625 22.550781 210.296875 23.15625 C 210.710938 23.382812 211.070312 23.6875 211.375 24.0625 C 211.6875 24.445312 211.785156 24.925781 211.671875 25.5 C 211.585938 26.03125 211.40625 26.351562 211.125 26.46875 C 210.84375 26.582031 210.53125 26.640625 210.1875 26.640625 C 209.007812 26.710938 207.789062 26.632812 206.53125 26.40625 C 201.28125 25.5 196.015625 24.625 190.734375 23.78125 C 181.953125 22.414062 173.164062 20.820312 164.375 19 C 150.226562 15.988281 136.085938 13.019531 121.953125 10.09375 C 118.941406 9.488281 115.894531 8.863281 112.8125 8.21875 C 108.289062 7.1875 103.691406 6.3125 99.015625 5.59375 C 97.003906 5.175781 96 6.050781 96 8.21875 C 95.914062 9.695312 95.875 11.160156 95.875 12.609375 C 95.875 13.367188 95.875 14.109375 95.875 14.828125 C 95.613281 39.273438 95.367188 63.742188 95.140625 88.234375 C 95.140625 88.503906 95.140625 88.8125 95.140625 89.15625 C 95.140625 90.0625 95.082031 90.972656 94.96875 91.890625 C 94.8125 94.171875 93.554688 95.140625 91.203125 94.796875 C 88.804688 94.453125 87.472656 93.195312 87.203125 91.03125 C 87.054688 89.925781 87.019531 88.84375 87.09375 87.78125 C 87.09375 87.59375 87.09375 87.457031 87.09375 87.375 C 87.019531 74.488281 86.890625 61.8125 86.703125 49.34375 C 86.546875 36.71875 86.46875 23.882812 86.46875 10.84375 C 86.46875 10.269531 86.46875 9.640625 86.46875 8.953125 C 86.394531 7.847656 86.394531 6.765625 86.46875 5.703125 C 86.539062 3.765625 85.664062 2.378906 83.84375 1.546875 C 83.65625 1.460938 83.445312 1.382812 83.21875 1.3125 C 81.769531 0.707031 80.378906 -0.015625 79.046875 -0.859375 C 75.128906 -3.441406 74.21875 -6.578125 76.3125 -10.265625 C 77.875 -12.847656 79.96875 -14.882812 82.59375 -16.375 C 84.144531 -17.207031 85.195312 -18.296875 85.75 -19.640625 C 86.300781 -20.992188 86.578125 -22.625 86.578125 -24.53125 C 86.503906 -45.78125 86.503906 -67.035156 86.578125 -88.296875 C 86.578125 -93.460938 86.578125 -98.648438 86.578125 -103.859375 C 86.578125 -104.085938 86.578125 -104.375 86.578125 -104.71875 C 86.578125 -106.65625 86.617188 -108.539062 86.703125 -110.375 C 86.960938 -112.726562 88.519531 -113.695312 91.375 -113.28125 C 94.113281 -112.9375 95.519531 -111.507812 95.59375 -109 C 95.59375 -107.476562 95.59375 -106.015625 95.59375 -104.609375 C 95.59375 -104.109375 95.59375 -103.613281 95.59375 -103.125 C 95.707031 -91.488281 95.765625 -79.890625 95.765625 -68.328125 C 95.765625 -56.878906 95.800781 -45.414062 95.875 -33.9375 C 95.875 -33.863281 95.875 -33.785156 95.875 -33.703125 C 95.875 -31.765625 95.914062 -29.882812 96 -28.0625 C 96.144531 -26.238281 97.113281 -25.648438 98.90625 -26.296875 C 99.476562 -26.554688 100.046875 -26.859375 100.609375 -27.203125 C 100.722656 -27.203125 100.78125 -27.203125 100.78125 -27.203125 C 111.125 -32.722656 121.378906 -38.445312 131.546875 -44.375 C 141.722656 -50.300781 151.625 -56.648438 161.25 -63.421875 C 167.863281 -68.023438 174.179688 -72.988281 180.203125 -78.3125 C 186.234375 -83.632812 191.703125 -89.546875 196.609375 -96.046875 C 201.972656 -103.003906 205.867188 -110.800781 208.296875 -119.4375 C 209.898438 -125.101562 210.320312 -131.070312 209.5625 -137.34375 C 208.226562 -146.882812 203.757812 -154.96875 196.15625 -161.59375 C 192.539062 -164.664062 188.640625 -167.132812 184.453125 -169 C 169.128906 -176.1875 153.796875 -179.863281 138.453125 -180.03125 C 123.109375 -180.207031 108.34375 -177.71875 94.15625 -172.5625 C 79.976562 -167.414062 66.992188 -160.410156 55.203125 -151.546875 C 43.421875 -142.691406 33.347656 -132.769531 24.984375 -121.78125 C 21.710938 -118.007812 18.859375 -113.921875 16.421875 -109.515625 C 14.753906 -106.734375 13.269531 -103.878906 11.96875 -100.953125 C 10.675781 -98.023438 9.820312 -94.851562 9.40625 -91.4375 C 9.332031 -90.59375 9.019531 -90 8.46875 -89.65625 C 7.914062 -89.320312 7.257812 -89.210938 6.5 -89.328125 C 5.507812 -89.328125 4.5625 -89.476562 3.65625 -89.78125 C 1.707031 -90.457031 0.695312 -91.804688 0.625 -93.828125 C 0.550781 -96.484375 1.007812 -99.03125 2 -101.46875 C 5.269531 -110.519531 10.003906 -118.597656 16.203125 -125.703125 C 25.742188 -136.890625 37 -146.976562 49.96875 -155.96875 C 62.9375 -164.957031 77.003906 -172.066406 92.171875 -177.296875 C 107.347656 -182.523438 123.050781 -185.082031 139.28125 -184.96875 C 155.519531 -184.851562 171.660156 -181.316406 187.703125 -174.359375 C 191.660156 -172.609375 195.46875 -170.519531 199.125 -168.09375 Z M 199.125 -168.09375 "/></g></g></g><g fill="#ffffff" fill-opacity="1"><g transform="translate(190.208369, 228.321569)"><g><path d="M 29.59375 -23.15625 C 28.414062 -20.71875 26.410156 -18.015625 23.578125 -15.046875 C 20.742188 -12.085938 17.53125 -10.207031 13.9375 -9.40625 C 10.351562 -8.613281 6.925781 -9.851562 3.65625 -13.125 C 2.394531 -14.5625 1.46875 -16.222656 0.875 -18.109375 C 0.289062 -19.992188 0.078125 -21.847656 0.234375 -23.671875 C 0.234375 -24.160156 0.234375 -24.785156 0.234375 -25.546875 C 0.234375 -27.492188 0.316406 -29.738281 0.484375 -32.28125 C 0.648438 -34.832031 1.03125 -37.132812 1.625 -39.1875 C 2.21875 -41.238281 3.140625 -42.472656 4.390625 -42.890625 C 8.003906 -43.804688 9.960938 -42.550781 10.265625 -39.125 C 10.265625 -38.019531 10.226562 -36.914062 10.15625 -35.8125 C 10.070312 -35.25 10.03125 -34.71875 10.03125 -34.21875 C 9.957031 -32.625 9.882812 -31.03125 9.8125 -29.4375 C 9.8125 -28.175781 9.753906 -26.921875 9.640625 -25.671875 C 9.566406 -20.148438 10.800781 -16.867188 13.34375 -15.828125 C 15.894531 -14.785156 18.804688 -15.894531 22.078125 -19.15625 C 25.347656 -22.425781 27.484375 -25.144531 28.484375 -27.3125 C 29.492188 -29.488281 30.226562 -29.945312 30.6875 -28.6875 C 31.144531 -27.4375 30.78125 -25.59375 29.59375 -23.15625 Z M 9.53125 -54.640625 C 9.03125 -54.222656 8.425781 -53.957031 7.71875 -53.84375 C 7.019531 -53.726562 6.40625 -53.785156 5.875 -54.015625 C 5.457031 -54.359375 5.191406 -54.804688 5.078125 -55.359375 C 4.960938 -55.910156 4.90625 -56.566406 4.90625 -57.328125 C 4.90625 -57.472656 4.941406 -57.625 5.015625 -57.78125 C 5.097656 -58.46875 5.269531 -59.148438 5.53125 -59.828125 C 6.289062 -61.648438 7.867188 -62.488281 10.265625 -62.34375 C 11.097656 -62.226562 11.753906 -61.882812 12.234375 -61.3125 C 12.710938 -60.738281 12.816406 -60.070312 12.546875 -59.3125 C 11.972656 -57.457031 10.96875 -55.898438 9.53125 -54.640625 Z M 9.53125 -54.640625 "/></g></g></g><g fill="#ffffff" fill-opacity="1"><g transform="translate(218.211681, 228.321569)"><g><path d="M 69.875 -21.046875 C 69.875 -21.046875 69.875 -21.082031 69.875 -21.15625 C 70.21875 -21.5 71.035156 -22.25 72.328125 -23.40625 C 73.617188 -24.570312 74.976562 -25.675781 76.40625 -26.71875 C 77.832031 -27.769531 78.859375 -28.320312 79.484375 -28.375 C 80.109375 -28.4375 79.960938 -27.492188 79.046875 -25.546875 C 78.898438 -25.285156 78.671875 -24.972656 78.359375 -24.609375 C 78.054688 -24.242188 77.796875 -23.894531 77.578125 -23.5625 C 77.460938 -23.476562 77.363281 -23.378906 77.28125 -23.265625 C 71.425781 -16.992188 66.84375 -12.648438 63.53125 -10.234375 C 60.226562 -7.816406 56.960938 -6.6875 53.734375 -6.84375 C 50.378906 -7.1875 48.113281 -8.488281 46.9375 -10.75 C 45.757812 -13.007812 45.1875 -15.765625 45.21875 -19.015625 C 45.257812 -22.273438 45.53125 -25.578125 46.03125 -28.921875 C 46.5625 -32.378906 46.78125 -35.332031 46.6875 -37.78125 C 46.59375 -40.238281 45.742188 -41.675781 44.140625 -42.09375 C 42.660156 -42.207031 41.140625 -40.976562 39.578125 -38.40625 C 38.023438 -35.84375 36.546875 -32.867188 35.140625 -29.484375 C 33.734375 -26.097656 32.550781 -23.113281 31.59375 -20.53125 C 31.101562 -19.125 30.742188 -18.117188 30.515625 -17.515625 C 29.828125 -16.179688 28.851562 -15.304688 27.59375 -14.890625 C 26.34375 -14.472656 25.015625 -14.546875 23.609375 -15.109375 C 22.773438 -15.640625 22.265625 -16.363281 22.078125 -17.28125 C 21.847656 -19.300781 21.769531 -21.394531 21.84375 -23.5625 C 21.914062 -24.96875 21.914062 -26.332031 21.84375 -27.65625 C 21.84375 -28 21.84375 -28.421875 21.84375 -28.921875 C 21.84375 -29.597656 21.84375 -30.269531 21.84375 -30.9375 C 21.84375 -31.601562 21.773438 -32.191406 21.640625 -32.703125 C 21.515625 -33.222656 21.238281 -33.484375 20.8125 -33.484375 C 20.164062 -33.554688 19.375 -32.773438 18.4375 -31.140625 C 17.507812 -29.503906 16.570312 -27.554688 15.625 -25.296875 C 14.675781 -23.035156 13.820312 -20.992188 13.0625 -19.171875 C 12.375 -17.566406 11.914062 -16.476562 11.6875 -15.90625 C 11.570312 -15.644531 11.441406 -15.378906 11.296875 -15.109375 C 10.535156 -13.628906 9.773438 -12.128906 9.015625 -10.609375 C 8.367188 -9.359375 7.285156 -8.617188 5.765625 -8.390625 C 2.679688 -7.859375 1.003906 -9.113281 0.734375 -12.15625 C 0.515625 -19.90625 0.304688 -27.679688 0.109375 -35.484375 C 0.109375 -37.492188 1.363281 -38.203125 3.875 -37.609375 C 6.382812 -37.023438 7.773438 -35.722656 8.046875 -33.703125 C 8.273438 -30.429688 8.644531 -28.773438 9.15625 -28.734375 C 9.664062 -28.703125 10.71875 -30.148438 12.3125 -33.078125 C 13.15625 -34.484375 14.03125 -35.910156 14.9375 -37.359375 C 16.007812 -39.265625 17.472656 -40.9375 19.328125 -42.375 C 21.234375 -43.632812 23.066406 -44.003906 24.828125 -43.484375 C 26.597656 -42.972656 27.976562 -41.632812 28.96875 -39.46875 C 29.394531 -38.550781 29.816406 -38.054688 30.234375 -37.984375 C 30.648438 -37.910156 31.066406 -38.097656 31.484375 -38.546875 C 31.898438 -39.003906 32.316406 -39.5625 32.734375 -40.21875 C 33.078125 -40.894531 33.457031 -41.484375 33.875 -41.984375 C 36.238281 -44.566406 39.046875 -46.359375 42.296875 -47.359375 C 45.546875 -48.367188 48.488281 -48.332031 51.125 -47.25 C 53.769531 -46.164062 55.300781 -43.78125 55.71875 -40.09375 C 55.875 -35.6875 55.570312 -31.179688 54.8125 -26.578125 C 54.507812 -24.367188 54.265625 -22.28125 54.078125 -20.3125 C 53.921875 -16.007812 54.695312 -13.648438 56.40625 -13.234375 C 58.125 -12.816406 60.21875 -13.488281 62.6875 -15.25 C 65.15625 -17.019531 67.550781 -18.953125 69.875 -21.046875 Z M 69.875 -21.046875 "/></g></g></g><g fill="#ffffff" fill-opacity="1"><g transform="translate(122.534621, 280.788387)"><g><path d="M 2.359375 -15.71875 L 8.421875 -15.71875 C 9.066406 -15.71875 9.65625 -15.613281 10.1875 -15.40625 C 10.726562 -15.195312 11.1875 -14.90625 11.5625 -14.53125 C 11.945312 -14.164062 12.25 -13.734375 12.46875 -13.234375 C 12.6875 -12.742188 12.796875 -12.222656 12.796875 -11.671875 C 12.796875 -11.046875 12.703125 -10.523438 12.515625 -10.109375 C 12.328125 -9.703125 12.125 -9.367188 11.90625 -9.109375 C 11.632812 -8.816406 11.332031 -8.585938 11 -8.421875 C 11.46875 -8.191406 11.894531 -7.898438 12.28125 -7.546875 C 12.613281 -7.234375 12.910156 -6.828125 13.171875 -6.328125 C 13.441406 -5.835938 13.578125 -5.222656 13.578125 -4.484375 C 13.578125 -3.847656 13.460938 -3.253906 13.234375 -2.703125 C 13.003906 -2.160156 12.675781 -1.6875 12.25 -1.28125 C 11.832031 -0.875 11.328125 -0.554688 10.734375 -0.328125 C 10.148438 -0.109375 9.488281 0 8.75 0 L 2.359375 0 Z M 8.75 -1.578125 C 9.707031 -1.578125 10.472656 -1.847656 11.046875 -2.390625 C 11.617188 -2.929688 11.90625 -3.628906 11.90625 -4.484375 C 11.90625 -4.910156 11.828125 -5.3125 11.671875 -5.6875 C 11.523438 -6.070312 11.316406 -6.40625 11.046875 -6.6875 C 10.773438 -6.976562 10.441406 -7.207031 10.046875 -7.375 C 9.660156 -7.550781 9.226562 -7.640625 8.75 -7.640625 L 4.046875 -7.640625 L 4.046875 -1.578125 Z M 8.421875 -9.109375 C 9.273438 -9.109375 9.9375 -9.335938 10.40625 -9.796875 C 10.875 -10.253906 11.109375 -10.878906 11.109375 -11.671875 C 11.109375 -12.410156 10.875 -13.003906 10.40625 -13.453125 C 9.9375 -13.910156 9.273438 -14.140625 8.421875 -14.140625 L 4.046875 -14.140625 L 4.046875 -9.109375 Z M 8.421875 -9.109375 "/></g></g></g><g fill="#ffffff" fill-opacity="1"><g transform="translate(151.844317, 280.788387)"><g><path d="M 2.359375 -15.71875 L 13.140625 -15.71875 L 13.140625 -14.140625 L 4.046875 -14.140625 L 4.046875 -8.984375 L 11.34375 -8.984375 L 11.34375 -7.40625 L 4.046875 -7.40625 L 4.046875 -1.578125 L 13.359375 -1.578125 L 13.359375 0 L 2.359375 0 Z M 2.359375 -15.71875 "/></g></g></g><g fill="#ffffff" fill-opacity="1"><g transform="translate(180.592628, 280.788387)"><g><path d="M 2.359375 -15.71875 L 3.8125 -15.71875 L 13.46875 -3.03125 L 13.46875 -15.71875 L 15.15625 -15.71875 L 15.15625 0 L 13.703125 0 L 4.046875 -12.6875 L 4.046875 0 L 2.359375 0 Z M 2.359375 -15.71875 "/></g></g></g><g fill="#ffffff" fill-opacity="1"><g transform="translate(212.484666, 280.788387)"><g/></g></g><g fill="#ffffff" fill-opacity="1"><g transform="translate(231.577258, 280.788387)"><g><path d="M 6.953125 -15.71875 L 8.53125 -15.71875 L 15.046875 0 L 13.25 0 L 11.453125 -4.375 L 4.046875 -4.375 L 2.25 0 L 0.453125 0 Z M 10.78125 -5.953125 L 7.75 -13.359375 L 4.71875 -5.953125 Z M 10.78125 -5.953125 "/></g></g></g><g fill="#ffffff" fill-opacity="1"><g transform="translate(261.448307, 280.788387)"><g><path d="M 2.359375 -15.71875 L 3.8125 -15.71875 L 10.328125 -7.1875 L 16.84375 -15.71875 L 18.296875 -15.71875 L 18.296875 0 L 16.609375 0 L 16.609375 -12.796875 L 10.328125 -4.484375 L 4.046875 -12.796875 L 4.046875 0 L 2.359375 0 Z M 2.359375 -15.71875 "/></g></g></g><g fill="#ffffff" fill-opacity="1"><g transform="translate(296.484043, 280.788387)"><g><path d="M 9.4375 0.21875 C 8.3125 0.21875 7.257812 0.0078125 6.28125 -0.40625 C 5.300781 -0.820312 4.441406 -1.394531 3.703125 -2.125 C 2.972656 -2.863281 2.394531 -3.722656 1.96875 -4.703125 C 1.550781 -5.679688 1.34375 -6.734375 1.34375 -7.859375 C 1.34375 -8.984375 1.550781 -10.035156 1.96875 -11.015625 C 2.394531 -11.992188 2.972656 -12.847656 3.703125 -13.578125 C 4.441406 -14.316406 5.300781 -14.894531 6.28125 -15.3125 C 7.257812 -15.726562 8.3125 -15.9375 9.4375 -15.9375 C 10.550781 -15.9375 11.597656 -15.726562 12.578125 -15.3125 C 13.566406 -14.894531 14.425781 -14.316406 15.15625 -13.578125 C 15.882812 -12.847656 16.457031 -11.992188 16.875 -11.015625 C 17.300781 -10.035156 17.515625 -8.984375 17.515625 -7.859375 C 17.515625 -6.734375 17.300781 -5.679688 16.875 -4.703125 C 16.457031 -3.722656 15.882812 -2.863281 15.15625 -2.125 C 14.425781 -1.394531 13.566406 -0.820312 12.578125 -0.40625 C 11.597656 0.0078125 10.550781 0.21875 9.4375 0.21875 Z M 9.4375 -1.34375 C 10.332031 -1.34375 11.164062 -1.503906 11.9375 -1.828125 C 12.71875 -2.160156 13.394531 -2.617188 13.96875 -3.203125 C 14.550781 -3.796875 15.003906 -4.488281 15.328125 -5.28125 C 15.660156 -6.070312 15.828125 -6.929688 15.828125 -7.859375 C 15.828125 -8.785156 15.660156 -9.644531 15.328125 -10.4375 C 15.003906 -11.226562 14.550781 -11.914062 13.96875 -12.5 C 13.394531 -13.082031 12.71875 -13.539062 11.9375 -13.875 C 11.164062 -14.207031 10.332031 -14.375 9.4375 -14.375 C 8.53125 -14.375 7.6875 -14.207031 6.90625 -13.875 C 6.132812 -13.539062 5.457031 -13.082031 4.875 -12.5 C 4.300781 -11.914062 3.847656 -11.226562 3.515625 -10.4375 C 3.191406 -9.644531 3.03125 -8.785156 3.03125 -7.859375 C 3.03125 -6.929688 3.191406 -6.070312 3.515625 -5.28125 C 3.847656 -4.488281 4.300781 -3.796875 4.875 -3.203125 C 5.457031 -2.617188 6.132812 -2.160156 6.90625 -1.828125 C 7.6875 -1.503906 8.53125 -1.34375 9.4375 -1.34375 Z M 9.4375 -1.34375 "/></g></g></g><g fill="#ffffff" fill-opacity="1"><g transform="translate(329.72338, 280.788387)"><g><path d="M 2.359375 -15.71875 L 8.640625 -15.71875 C 9.347656 -15.71875 9.992188 -15.597656 10.578125 -15.359375 C 11.171875 -15.117188 11.679688 -14.785156 12.109375 -14.359375 C 12.535156 -13.941406 12.867188 -13.445312 13.109375 -12.875 C 13.347656 -12.300781 13.46875 -11.675781 13.46875 -11 C 13.46875 -10.101562 13.296875 -9.363281 12.953125 -8.78125 C 12.609375 -8.207031 12.234375 -7.75 11.828125 -7.40625 C 11.347656 -7.019531 10.8125 -6.722656 10.21875 -6.515625 L 13.921875 0 L 12.015625 0 L 8.53125 -6.28125 L 4.046875 -6.28125 L 4.046875 0 L 2.359375 0 Z M 8.640625 -7.859375 C 9.597656 -7.859375 10.359375 -8.140625 10.921875 -8.703125 C 11.492188 -9.273438 11.78125 -10.039062 11.78125 -11 C 11.78125 -11.957031 11.492188 -12.71875 10.921875 -13.28125 C 10.359375 -13.851562 9.597656 -14.140625 8.640625 -14.140625 L 4.046875 -14.140625 L 4.046875 -7.859375 Z M 8.640625 -7.859375 "/></g></g></g></svg>